<svg width="269" height="55" viewBox="0 0 269 55" fill="none" xmlns="http://www.w3.org/2000/svg">
<g clip-path="url(#clip0_202_2)">
<path d="M260.625 33.1362H268.115C268.22 33.1226 268.327 33.1475 268.415 33.2062C268.475 33.2976 268.5 33.4078 268.485 33.5162V35.1462C268.492 35.196 268.487 35.2467 268.471 35.2943C268.455 35.3418 268.427 35.3849 268.391 35.42C268.355 35.455 268.311 35.4811 268.263 35.4961C268.215 35.5111 268.165 35.5145 268.115 35.5062H264.815V45.5062C264.828 45.6159 264.8 45.7266 264.735 45.8162C264.627 45.882 264.5 45.9101 264.375 45.8962H262.375C262.261 45.9062 262.147 45.8742 262.055 45.8062C262.016 45.7675 261.987 45.7202 261.969 45.6681C261.952 45.616 261.947 45.5605 261.955 45.5062V35.5062H260.575L260.625 33.1362Z" fill="#63AFB7" stroke="#63AFB7" stroke-width="0.75" stroke-miterlimit="10"/>
<path d="M252.115 33.3962C252.613 33.194 253.148 33.0986 253.685 33.1162H258.945C259.085 33.1162 259.185 33.1162 259.225 33.2062C259.275 33.3157 259.295 33.4363 259.285 33.5562V35.1062C259.298 35.2177 259.273 35.3304 259.215 35.4262C259.138 35.4864 259.042 35.5151 258.945 35.5062H254.305C254.124 35.475 253.938 35.4888 253.764 35.5463C253.589 35.6039 253.432 35.7034 253.305 35.8362C253.141 36.0701 253.057 36.3507 253.065 36.6362V38.0462H258.305C258.455 38.0462 258.545 38.0462 258.585 38.1362C258.644 38.2428 258.668 38.3651 258.655 38.4862V39.9062C258.665 40.0175 258.641 40.1293 258.585 40.2262C258.585 40.2962 258.455 40.3262 258.305 40.3262H253.065V42.4062C253.042 42.5646 253.057 42.7263 253.109 42.8777C253.161 43.0291 253.249 43.1658 253.365 43.2762C253.63 43.4441 253.941 43.5245 254.255 43.5062H259.075C259.235 43.5062 259.335 43.5062 259.375 43.5862C259.427 43.695 259.448 43.8162 259.435 43.9362V45.4962C259.445 45.6043 259.421 45.7129 259.365 45.8062C259.329 45.8462 259.284 45.877 259.233 45.8962C259.183 45.9153 259.128 45.9221 259.075 45.9162H253.675C253.103 45.9367 252.534 45.8344 252.005 45.6162L252.115 33.3962Z" fill="#63AFB7" stroke="#63AFB7" stroke-width="0.75" stroke-miterlimit="10"/>
<path d="M239.215 44.1562C239.644 43.9579 240.031 43.6796 240.355 43.3362C240.668 42.9706 240.897 42.5404 241.025 42.0762C241.219 41.4245 241.343 40.7541 241.395 40.0762C241.475 39.2762 241.545 38.2962 241.625 37.0762L241.785 34.2962C241.781 33.9662 241.875 33.6425 242.055 33.3662C242.176 33.2563 242.318 33.1735 242.474 33.1235C242.629 33.0734 242.793 33.0573 242.955 33.0762H249.505C249.669 33.0571 249.836 33.0741 249.993 33.1259C250.15 33.1777 250.294 33.2631 250.415 33.3762C250.607 33.6428 250.699 33.9685 250.675 34.2962V45.5862C250.686 45.6772 250.665 45.7693 250.615 45.8462C250.518 45.9027 250.406 45.9272 250.295 45.9162H248.295C248.197 45.9228 248.099 45.8983 248.015 45.8462C247.955 45.8462 247.935 45.7162 247.935 45.5862V35.5862H244.345L244.265 36.8662C244.175 38.2162 244.075 39.4062 243.975 40.4562C243.903 41.3834 243.725 42.2993 243.445 43.1862C243.224 43.9109 242.833 44.5725 242.305 45.1162C241.712 45.687 240.987 46.1027 240.195 46.3262C240.085 46.3643 239.965 46.3643 239.855 46.3262C239.765 46.3262 239.695 46.2262 239.635 46.0762L239.015 44.7062C238.976 44.6064 238.976 44.4959 239.015 44.3962C239.032 44.3395 239.063 44.288 239.105 44.2461C239.147 44.2043 239.198 44.1734 239.255 44.1562" fill="#63AFB7"/>
<path d="M239.215 44.1562C239.644 43.9579 240.031 43.6796 240.355 43.3362C240.668 42.9706 240.897 42.5404 241.025 42.0762C241.219 41.4245 241.343 40.7541 241.395 40.0762C241.475 39.2762 241.545 38.2962 241.625 37.0762L241.785 34.2962C241.781 33.9662 241.875 33.6425 242.055 33.3662C242.176 33.2563 242.318 33.1735 242.474 33.1235C242.629 33.0734 242.793 33.0573 242.955 33.0762H249.505C249.669 33.0571 249.836 33.0741 249.993 33.1259C250.15 33.1777 250.294 33.2631 250.415 33.3762C250.607 33.6428 250.699 33.9685 250.675 34.2962V45.5862C250.686 45.6772 250.665 45.7693 250.615 45.8462C250.518 45.9027 250.406 45.9272 250.295 45.9162H248.295C248.197 45.9228 248.099 45.8983 248.015 45.8462C247.955 45.8462 247.935 45.7162 247.935 45.5862V35.5862H244.345L244.265 36.8662C244.175 38.2162 244.075 39.4062 243.975 40.4562C243.903 41.3834 243.725 42.2993 243.445 43.1862C243.224 43.9109 242.833 44.5725 242.305 45.1162C241.712 45.687 240.987 46.1027 240.195 46.3262C240.085 46.3643 239.965 46.3643 239.855 46.3262C239.765 46.3262 239.695 46.2262 239.635 46.0762L239.015 44.7062C238.976 44.6064 238.976 44.4959 239.015 44.3962C239.032 44.3395 239.063 44.288 239.105 44.2461C239.147 44.2043 239.198 44.1734 239.255 44.1562" stroke="#63AFB7" stroke-width="0.75" stroke-miterlimit="10"/>
<path d="M239.365 29.0262C239.067 27.7037 238.525 26.4487 237.765 25.3262C237.069 24.3174 236.135 23.4964 235.045 22.9362C233.844 22.3504 232.52 22.0622 231.185 22.0962C229.857 22.0669 228.543 22.3621 227.355 22.9562C227.007 23.139 226.673 23.3461 226.355 23.5762C226.225 23.6762 225.955 23.8962 225.885 23.9662C225.815 24.0362 226.025 24.1862 226.115 24.3462C226.986 25.8057 227.41 27.4883 227.335 29.1862C227.163 31.2825 226.239 33.2463 224.735 34.7162C224.088 35.3917 223.347 35.9709 222.535 36.4362C222.601 37.2664 222.738 38.0895 222.945 38.8962C223.253 40.2339 223.802 41.5045 224.565 42.6462C225.261 43.655 226.195 44.476 227.285 45.0362C228.488 45.596 229.798 45.8861 231.125 45.8861C232.452 45.8861 233.762 45.596 234.965 45.0362C236.065 44.4647 237.006 43.6299 237.705 42.6062C238.484 41.4675 239.04 40.1917 239.345 38.8462C239.712 37.2526 239.889 35.6214 239.875 33.9862C239.902 32.3185 239.731 30.6534 239.365 29.0262ZM235.125 37.0262C235.008 37.8589 234.773 38.6706 234.425 39.4362C234.136 40.072 233.692 40.6254 233.135 41.0462C232.566 41.4478 231.881 41.6516 231.185 41.6262C230.473 41.6552 229.771 41.4516 229.185 41.0462C228.619 40.6236 228.171 40.0622 227.885 39.4162C227.537 38.64 227.302 37.8185 227.185 36.9762C227.04 35.9661 226.97 34.9466 226.975 33.9262C226.969 32.8958 227.039 31.8663 227.185 30.8462C227.302 30.007 227.537 29.1888 227.885 28.4162C228.17 27.7894 228.607 27.2432 229.155 26.8262C229.726 26.4395 230.405 26.2435 231.095 26.2662C231.791 26.2422 232.475 26.4459 233.045 26.8462C233.605 27.2663 234.052 27.8197 234.345 28.4562C234.71 29.228 234.956 30.0506 235.075 30.8962C235.237 31.9213 235.314 32.9583 235.305 33.9962C235.32 35.0059 235.26 36.0154 235.125 37.0162V37.0262Z" fill="#63AFB7" stroke="#63AFB7" stroke-width="0.75" stroke-miterlimit="10"/>
<path d="M226.015 45.6362H213.515C212.774 45.6885 212.04 45.464 211.455 45.0062C211.169 44.6518 210.958 44.2432 210.834 43.8049C210.71 43.3666 210.676 42.9078 210.735 42.4562C210.768 41.4929 211.035 40.5522 211.515 39.7162C212.093 38.6586 212.805 37.6804 213.635 36.8062C214.436 35.9291 215.306 35.1165 216.235 34.3762C217.125 33.6762 217.915 33.0762 218.585 32.6062C219.255 32.1362 219.655 31.8162 220.035 31.4862C220.359 31.2109 220.654 30.9026 220.915 30.5662C221.112 30.3143 221.265 30.0301 221.365 29.7262C221.447 29.4368 221.488 29.1371 221.485 28.8362C221.485 28.5551 221.431 28.2766 221.325 28.0162C221.222 27.7425 221.058 27.4961 220.845 27.2962C220.577 27.0753 220.272 26.9028 219.945 26.7862C219.488 26.6338 219.007 26.5628 218.525 26.5762C217.726 26.5829 216.934 26.7284 216.185 27.0062C215.615 27.2252 215.066 27.4963 214.545 27.8162C214.327 27.9407 214.071 27.979 213.826 27.9235C213.582 27.8679 213.367 27.7225 213.225 27.5162L212.095 25.7162C211.971 25.5106 211.924 25.2671 211.965 25.0302C212.005 24.7933 212.129 24.5789 212.315 24.4262C214.208 23.0001 216.515 22.2311 218.885 22.2362C219.846 22.2277 220.802 22.3591 221.725 22.6262C222.563 22.8646 223.342 23.2731 224.015 23.8262C224.669 24.3688 225.193 25.0525 225.545 25.8262C225.927 26.7129 226.114 27.671 226.095 28.6362C226.101 29.4214 225.976 30.202 225.725 30.9462C225.497 31.6327 225.159 32.2777 224.725 32.8562C224.264 33.4506 223.738 33.9907 223.155 34.4662C222.516 34.9866 221.848 35.4707 221.155 35.9162C220.613 36.2576 220.092 36.6316 219.595 37.0362C219.066 37.4567 218.562 37.9075 218.085 38.3862C217.611 38.8596 217.173 39.3676 216.775 39.9062C216.393 40.411 216.09 40.9706 215.875 41.5662H222.585C222.888 42.2538 223.275 42.902 223.735 43.4962C224.371 44.3309 225.142 45.0541 226.015 45.6362Z" fill="#63AFB7" stroke="#63AFB7" stroke-width="0.75" stroke-miterlimit="10"/>
<path fill-rule="evenodd" clip-rule="evenodd" d="M84.665 42.8362C85.389 42.8508 86.1109 42.7529 86.805 42.5462C87.425 42.3562 87.995 42.1562 88.535 41.9462C88.775 41.8562 88.945 41.8262 89.045 41.8962C89.1782 41.9813 89.2746 42.1133 89.315 42.2662L90.185 44.0662C90.2848 44.2275 90.3271 44.4178 90.305 44.6062C90.2806 44.6723 90.2433 44.7329 90.1952 44.7844C90.1471 44.8359 90.0892 44.8773 90.025 44.9062C89.1473 45.4495 88.1782 45.829 87.165 46.0262C86.1765 46.2183 85.1719 46.3154 84.165 46.3162C82.9483 46.3445 81.7381 46.1303 80.605 45.6862C79.6466 45.3168 78.797 44.7114 78.135 43.9262C77.4621 43.0903 76.9716 42.1229 76.695 41.0862C76.3861 39.8575 76.2448 38.5927 76.275 37.3262C76.2605 36.052 76.4599 34.7844 76.865 33.5762C77.2152 32.5118 77.7764 31.5289 78.515 30.6862C79.2148 29.8803 80.0861 29.2414 81.065 28.8162C82.1137 28.3677 83.2445 28.1429 84.385 28.1562C85.2416 28.1392 86.0981 28.1961 86.945 28.3262C87.7961 28.4731 88.6151 28.7675 89.365 29.1962C89.555 29.2962 89.675 29.3862 89.695 29.4962C89.7124 29.6939 89.6707 29.8923 89.575 30.0662L88.795 31.8062C88.7548 31.9729 88.664 32.1231 88.535 32.2362C88.445 32.2962 88.275 32.2362 88.035 32.2362C87.4858 32.03 86.9205 31.8695 86.345 31.7562C85.7732 31.6343 85.1895 31.5773 84.605 31.5862C83.9671 31.5713 83.3364 31.7229 82.775 32.0262C82.2456 32.3233 81.7907 32.7371 81.445 33.2362C81.0685 33.786 80.7941 34.3991 80.635 35.0462C80.4243 35.7882 80.3133 36.5549 80.305 37.3262C80.2988 38.0813 80.3692 38.8352 80.515 39.5762C80.6405 40.2019 80.8886 40.7967 81.245 41.3262C81.5894 41.816 82.0544 42.2086 82.595 42.4662C83.2457 42.7549 83.9536 42.8917 84.665 42.8662V42.8362ZM98.665 35.8362V45.5862C98.6753 45.6584 98.6709 45.732 98.652 45.8024C98.633 45.8729 98.6001 45.9388 98.555 45.9962C98.4055 46.0669 98.2393 46.0946 98.075 46.0762H95.625C95.235 46.0762 95.045 45.9262 95.045 45.5862V35.7862H91.465C91.125 35.7862 90.965 35.5862 90.965 35.2262V33.3962C90.9504 33.2352 90.9779 33.0732 91.045 32.9262C91.1028 32.878 91.17 32.8425 91.2423 32.8218C91.3146 32.8011 91.3905 32.7958 91.465 32.8062H102.345C102.418 32.7972 102.492 32.8033 102.562 32.8239C102.633 32.8445 102.698 32.8793 102.755 32.9262C102.836 33.0686 102.871 33.2329 102.855 33.3962V35.2262C102.855 35.5862 102.685 35.7862 102.345 35.7862L98.665 35.8362ZM210.105 37.2662L214.025 45.5862C214.165 45.9062 214.025 46.0762 213.645 46.0762H210.705C210.547 46.0862 210.39 46.0588 210.245 45.9962C210.102 45.9017 209.996 45.7603 209.945 45.5962L207.535 40.1762L205.645 42.3262V43.8762C205.645 44.1862 205.645 44.4862 205.645 44.7862C205.645 45.0862 205.645 45.3662 205.645 45.5762C205.652 45.7121 205.621 45.8473 205.555 45.9662C205.495 46.0362 205.345 46.0562 205.115 46.0562H202.495C202.145 46.0562 201.975 45.9062 201.975 45.5762V33.3262C201.967 33.2579 201.973 33.1887 201.994 33.1231C202.014 33.0576 202.049 32.9972 202.095 32.9462C202.22 32.8866 202.357 32.8591 202.495 32.8662H205.135C205.283 32.8469 205.434 32.8749 205.565 32.9462C205.625 32.9462 205.645 33.1162 205.645 33.3262V37.3262L205.735 37.3862L209.375 33.0662C209.479 32.9618 209.593 32.8681 209.715 32.7862C209.875 32.7267 210.045 32.7028 210.215 32.7162H213.305C213.535 32.7162 213.665 32.7762 213.695 32.8862C213.701 32.952 213.693 33.0185 213.67 33.0807C213.648 33.1429 213.612 33.1994 213.565 33.2462L210.105 37.2662ZM184.255 44.4262C184.258 44.6192 184.231 44.8115 184.175 44.9962C184.077 45.1822 183.923 45.3326 183.735 45.4262C183.328 45.6122 182.906 45.766 182.475 45.8862C182.027 46.002 181.573 46.0922 181.115 46.1562C180.645 46.2262 180.175 46.2762 179.705 46.3162C179.235 46.3562 178.785 46.3162 178.355 46.3162C177.397 46.336 176.441 46.2215 175.515 45.9762C174.852 45.8112 174.232 45.5079 173.695 45.0862C173.266 44.7267 172.939 44.2613 172.745 43.7362C172.558 43.2026 172.464 42.6413 172.465 42.0762C172.457 41.4539 172.569 40.8359 172.795 40.2562C173.017 39.7135 173.359 39.2281 173.795 38.8362C174.274 38.3921 174.839 38.0516 175.455 37.8362C176.225 37.5944 177.028 37.4795 177.835 37.4962H180.625V37.0962C180.624 36.8606 180.597 36.6259 180.545 36.3962C180.492 36.1856 180.386 35.9925 180.235 35.8362C180.049 35.6501 179.818 35.5156 179.565 35.4462C179.194 35.3255 178.805 35.2713 178.415 35.2862C178.165 35.2862 177.875 35.2862 177.555 35.2862L176.555 35.3962L175.615 35.5362C175.315 35.6062 175.035 35.6662 174.805 35.7362C174.656 35.7888 174.494 35.7888 174.345 35.7362C174.247 35.6527 174.186 35.5342 174.175 35.4062L173.755 33.6262C173.708 33.5004 173.708 33.362 173.755 33.2362C173.814 33.1398 173.907 33.0686 174.015 33.0362C174.794 32.7666 175.598 32.5757 176.415 32.4662C177.254 32.3585 178.099 32.3117 178.945 32.3262C180.378 32.2147 181.802 32.6348 182.945 33.5062C183.395 33.9631 183.741 34.5109 183.962 35.1128C184.183 35.7147 184.273 36.3568 184.225 36.9962L184.255 44.4262ZM180.575 40.0462H178.575C178.322 40.0325 178.068 40.0325 177.815 40.0462C177.554 40.0728 177.302 40.1546 177.075 40.2862C176.838 40.4175 176.639 40.6067 176.495 40.8362C176.326 41.141 176.249 41.4885 176.275 41.8362C176.253 42.0767 176.297 42.3187 176.401 42.5368C176.504 42.7549 176.665 42.9412 176.865 43.0762C177.36 43.3369 177.916 43.4579 178.475 43.4262H178.875H179.425L180.015 43.3162C180.208 43.2837 180.396 43.2266 180.575 43.1462V40.0462ZM115.685 44.3762C115.691 44.5686 115.667 44.7608 115.615 44.9462C115.515 45.1337 115.357 45.2844 115.165 45.3762C114.762 45.564 114.344 45.7178 113.915 45.8362C113.467 45.9501 113.013 46.0403 112.555 46.1062C112.075 46.1762 111.555 46.2262 111.135 46.2662C110.715 46.3062 110.225 46.2662 109.805 46.2662C108.843 46.3046 107.88 46.207 106.945 45.9762C106.283 45.8092 105.663 45.5061 105.125 45.0862C104.679 44.7319 104.334 44.2663 104.125 43.7362C103.972 43.1968 103.912 42.6357 103.945 42.0762C103.932 41.4535 104.044 40.8346 104.275 40.2562C104.494 39.712 104.836 39.226 105.275 38.8362C105.749 38.3857 106.315 38.0444 106.935 37.8362C107.701 37.5928 108.502 37.4779 109.305 37.4962H112.045V37.0962C112.044 36.8606 112.017 36.6259 111.965 36.3962C111.917 36.1817 111.805 35.9867 111.645 35.8362C111.463 35.6501 111.236 35.5155 110.985 35.4462C110.615 35.3398 110.229 35.2991 109.845 35.3262C109.585 35.3262 109.295 35.3262 108.975 35.3262L107.975 35.4362L107.025 35.5762C106.725 35.6462 106.455 35.7062 106.215 35.7762C106.07 35.8289 105.91 35.8289 105.765 35.7762C105.715 35.7364 105.674 35.6864 105.644 35.6295C105.615 35.5726 105.598 35.5101 105.595 35.4462L105.185 33.6662C105.134 33.5411 105.134 33.4012 105.185 33.2762C105.244 33.1798 105.337 33.1086 105.445 33.0762C106.221 32.8078 107.021 32.6168 107.835 32.5062C108.663 32.384 109.498 32.3205 110.335 32.3162C111.768 32.2038 113.192 32.6239 114.335 33.4962C114.787 33.9516 115.135 34.4992 115.356 35.1015C115.577 35.7037 115.665 36.3466 115.615 36.9862L115.685 44.3762ZM112.015 39.9962H110.015C109.762 39.9822 109.508 39.9822 109.255 39.9962C108.991 40.0226 108.735 40.1044 108.505 40.2362C108.273 40.3708 108.078 40.5595 107.935 40.7862C107.761 41.089 107.684 41.4381 107.715 41.7862C107.691 42.0259 107.733 42.2676 107.835 42.4858C107.937 42.704 108.096 42.8907 108.295 43.0262C108.792 43.2822 109.347 43.403 109.905 43.3762H110.315H110.865L111.465 43.2662C111.655 43.2323 111.839 43.1752 112.015 43.0962V39.9962ZM190.715 45.5362C190.715 45.7562 190.715 45.8862 190.605 45.9462C190.459 46.0161 190.296 46.0438 190.135 46.0262H187.615C187.255 46.0262 187.055 45.8762 187.055 45.5362V33.3262C187.055 32.9962 187.255 32.8462 187.615 32.8462H190.135C190.297 32.8377 190.458 32.8686 190.605 32.9362C190.685 32.9962 190.715 33.1162 190.715 33.3262V37.6362H195.425V33.3262C195.425 32.9962 195.615 32.8462 195.995 32.8462H198.515C198.674 32.833 198.833 32.8642 198.975 32.9362C199.055 32.9962 199.075 33.1162 199.075 33.3262V45.5362C199.075 45.7562 199.075 45.8862 198.975 45.9462C198.833 46.0186 198.673 46.0465 198.515 46.0262H195.995C195.615 46.0262 195.425 45.8762 195.425 45.5362V40.4662H190.715V45.5362ZM166.045 33.7762C166.861 33.7483 167.672 33.9091 168.415 34.2462C169.027 34.5547 169.561 34.9994 169.975 35.5462C170.393 36.1486 170.685 36.8287 170.835 37.5462C171.027 38.3146 171.121 39.1042 171.115 39.8962C171.111 40.6915 170.997 41.4824 170.775 42.2462C170.547 43.0017 170.162 43.7004 169.645 44.2962C169.093 44.9259 168.411 45.4276 167.645 45.7662C166.669 46.1714 165.622 46.3755 164.565 46.3662C163.431 46.4142 162.3 46.2093 161.255 45.7662C160.481 45.4239 159.811 44.8821 159.315 44.1962C158.864 43.5169 158.56 42.7503 158.425 41.9462C158.283 41.0667 158.213 40.1771 158.215 39.2862C158.211 37.9968 158.278 36.7082 158.415 35.4262C158.524 34.3465 158.8 33.2904 159.235 32.2962C159.613 31.3809 160.198 30.5661 160.945 29.9162C161.824 29.2161 162.849 28.7238 163.945 28.4762C164.535 28.3062 165.225 28.1462 166.055 27.9862L168.655 27.4662C168.768 27.448 168.882 27.448 168.995 27.4662C169.085 27.4662 169.155 27.5862 169.175 27.7762L169.715 29.8862C169.775 30.1162 169.765 30.2462 169.715 30.3062C169.641 30.3649 169.556 30.409 169.465 30.4362C168.875 30.5962 168.365 30.7162 167.925 30.7962C167.485 30.8762 167.045 30.9762 166.615 31.0862C165.957 31.2063 165.312 31.3836 164.685 31.6162C164.239 31.7748 163.823 32.0082 163.455 32.3062C163.152 32.5846 162.913 32.9259 162.755 33.3062C162.594 33.7748 162.493 34.2621 162.455 34.7562C162.455 34.7562 162.455 34.7562 162.505 34.7562L162.565 34.8062C163.112 34.4306 163.721 34.1562 164.365 33.9962C164.936 33.8481 165.525 33.7741 166.115 33.7762H166.045ZM164.555 43.2662C165.02 43.2829 165.481 43.1795 165.895 42.9662C166.236 42.7931 166.523 42.5303 166.725 42.2062C166.93 41.8823 167.073 41.5227 167.145 41.1462C167.239 40.7566 167.282 40.3567 167.275 39.9562C167.276 39.5839 167.242 39.2123 167.175 38.8462C167.116 38.4924 166.991 38.153 166.805 37.8462C166.634 37.5407 166.386 37.2856 166.085 37.1062C165.732 36.8956 165.325 36.7946 164.915 36.8162C164.445 36.8187 163.978 36.8825 163.525 37.0062C163.065 37.1282 162.624 37.3133 162.215 37.5562C162.155 38.1062 162.115 38.5562 162.085 38.9162C162.055 39.2762 162.085 39.6562 162.085 40.0362C162.079 40.4588 162.116 40.8809 162.195 41.2962C162.264 41.6518 162.4 41.9912 162.595 42.2962C162.773 42.594 163.033 42.8337 163.345 42.9862C163.727 43.1729 164.15 43.2622 164.575 43.2462L164.555 43.2662ZM151.945 42.9962C152.475 42.9957 153.002 42.9285 153.515 42.7962C153.963 42.6947 154.404 42.5644 154.835 42.4062C154.974 42.3357 155.13 42.3079 155.285 42.3262C155.355 42.3262 155.425 42.4562 155.495 42.6362L156.195 44.5262C156.267 44.6478 156.308 44.7851 156.315 44.9262C156.315 45.0362 156.205 45.1262 156.025 45.2262C155.286 45.6323 154.486 45.9128 153.655 46.0562C152.895 46.1884 152.126 46.2586 151.355 46.2662C150.525 46.322 149.693 46.1971 148.916 45.9002C148.139 45.6032 147.436 45.1413 146.855 44.5462C145.719 43.0845 145.17 41.2515 145.315 39.4062C145.298 38.4217 145.447 37.4414 145.755 36.5062C146.029 35.7002 146.465 34.9586 147.035 34.3262C147.588 33.7182 148.272 33.243 149.035 32.9362C149.871 32.615 150.76 32.4555 151.655 32.4662C152.357 32.4662 153.057 32.5365 153.745 32.6762C154.397 32.8045 155.03 33.0198 155.625 33.3162C155.855 33.4262 155.965 33.5162 155.995 33.5962C156.015 33.7456 155.983 33.8973 155.905 34.0262L155.195 35.9562C155.115 36.1562 155.025 36.2462 154.925 36.2762C154.755 36.276 154.586 36.249 154.425 36.1962C153.985 36.0662 153.545 35.9462 153.135 35.8662C152.737 35.7805 152.332 35.7369 151.925 35.7362C151.483 35.7248 151.045 35.8281 150.655 36.0362C150.314 36.2387 150.024 36.5156 149.805 36.8462C149.575 37.2024 149.415 37.5997 149.335 38.0162C149.23 38.4822 149.176 38.9584 149.175 39.4362C149.167 39.9199 149.214 40.403 149.315 40.8762C149.382 41.2823 149.532 41.6704 149.755 42.0162C149.978 42.3335 150.282 42.5855 150.635 42.7462C151.062 42.9506 151.532 43.0468 152.005 43.0262L151.945 42.9962ZM139.115 48.2262C138.846 49.2139 138.263 50.0877 137.455 50.7162C136.589 51.2405 135.586 51.4947 134.575 51.4462C134.255 51.4462 133.855 51.4462 133.415 51.3762C132.965 51.3295 132.523 51.2322 132.095 51.0862C131.951 51.0707 131.815 51.0114 131.705 50.9162C131.635 50.8462 131.635 50.7262 131.705 50.5262L132.135 48.5262C132.195 48.3262 132.245 48.2162 132.305 48.1962C132.431 48.1747 132.559 48.1747 132.685 48.1962L133.365 48.2962H133.915C134.395 48.3196 134.874 48.2198 135.305 48.0062C135.701 47.7305 135.979 47.3167 136.085 46.8462L136.545 45.4962H135.815C135.514 45.5458 135.205 45.4855 134.945 45.3262C134.713 45.0836 134.551 44.7831 134.475 44.4562L130.655 33.3262C130.585 33.1462 130.585 33.0162 130.655 32.9462C130.748 32.8791 130.86 32.844 130.975 32.8462H133.945C134.123 32.8351 134.301 32.8659 134.465 32.9362C134.577 33.0303 134.652 33.1616 134.675 33.3062L136.095 38.3262L137.275 42.7162H137.425L138.715 38.3262L140.225 33.3262C140.257 33.1812 140.326 33.047 140.425 32.9362C140.576 32.8378 140.756 32.7953 140.935 32.8162H143.935C144.215 32.8162 144.315 32.9562 144.205 33.2162L139.115 48.2662V48.2262ZM124.885 35.7862V45.5362C124.902 45.6804 124.867 45.8261 124.785 45.9462C124.636 46.0169 124.469 46.0446 124.305 46.0262H121.815C121.435 46.0262 121.235 45.8762 121.235 45.5362V35.7862H117.665C117.325 35.7862 117.155 35.5862 117.155 35.2262V33.3962C117.137 33.234 117.168 33.0702 117.245 32.9262C117.245 32.8462 117.445 32.8062 117.665 32.8062H128.545C128.616 32.7974 128.689 32.8036 128.758 32.8242C128.826 32.8449 128.89 32.8796 128.945 32.9262C129.026 33.0686 129.061 33.2329 129.045 33.3962V35.2262C129.045 35.5862 128.875 35.7862 128.545 35.7862H124.885Z" fill="#BAD60F"/>
<path d="M67.0951 24.6762C67.3051 24.4762 67.8551 24.8262 68.7451 25.6762C69.0765 25.9739 69.3719 26.3095 69.6251 26.6762C69.7951 26.9562 69.8651 27.1262 69.8451 27.1962V27.3162L50.8451 46.3162C50.6351 46.5162 50.0851 46.1562 49.1751 45.2562C48.8553 44.9556 48.5702 44.6202 48.3251 44.2562C48.1551 43.9862 48.0751 43.8162 48.1051 43.7362V43.6162C54.4451 37.2962 60.7784 30.9628 67.1051 24.6162L67.0951 24.6762Z" fill="#63AFB7"/>
<path fill-rule="evenodd" clip-rule="evenodd" d="M40.015 46.3262C39.815 46.5262 39.265 46.1662 38.345 45.2662C38.0252 44.9656 37.7401 44.6302 37.495 44.2662C37.325 43.9962 37.245 43.8262 37.275 43.7462V43.6262L61.695 19.2662C61.885 19.0662 62.435 19.4062 63.345 20.3162C63.6679 20.6165 63.9564 20.9519 64.205 21.3162C64.385 21.5862 64.455 21.7662 64.425 21.8362V21.9562C56.2783 30.0895 48.1417 38.2128 40.015 46.3262Z" fill="#BAD60F"/>
<path fill-rule="evenodd" clip-rule="evenodd" d="M31.535 38.4762L31.015 37.9662L29.085 36.0362C28.885 35.8362 29.225 35.2762 30.085 34.3862C30.3912 34.0634 30.7259 33.7688 31.085 33.5062C31.2602 33.3906 31.4651 33.3281 31.675 33.3262H31.795L33.725 35.2662L34.235 35.7762L36.695 38.2362V38.3462C36.695 38.4262 36.695 38.5962 36.475 38.8762C36.2264 39.2404 35.9379 39.5759 35.615 39.8762C34.705 40.7662 34.155 41.1162 33.945 40.8762L31.535 38.4762Z" fill="#BAD60F"/>
<path d="M36.945 33.0662L36.435 32.5562L34.495 30.6362C34.295 30.4262 34.645 29.8762 35.495 28.9862C35.7928 28.6547 36.1284 28.3593 36.495 28.1062C36.775 27.9362 36.945 27.8562 37.015 27.8862H37.135L39.075 29.8162L39.585 30.3262L42.045 32.7862V32.9062C42.045 32.9762 41.985 33.1562 41.815 33.4262C41.5599 33.7883 41.2684 34.1234 40.945 34.4262C40.055 35.3262 39.505 35.6662 39.295 35.4262L36.945 33.0662Z" fill="#63AFB7"/>
</g>
<path d="M43.0916 16.4075C41.5193 13.4852 39.7051 10.6977 37.6746 8.08411C37.0809 7.31947 36.4623 6.56348 35.7097 5.96137C34.856 5.27785 33.8563 4.81262 32.8607 4.37066C29.6349 2.9383 26.3361 1.67653 22.9819 0.592499C21.8446 0.224792 20.6567 -0.126217 19.4752 0.0443687C18.4453 0.19318 17.5133 0.726105 16.6088 1.24918C14.9448 2.21154 13.2804 3.1742 11.6164 4.13686C11.159 4.40138 10.6955 4.67097 10.3261 5.0521C9.98778 5.40161 9.74269 5.83045 9.50082 6.25482C6.31695 11.8438 3.13073 17.4372 0.303947 23.2218C0.159996 23.5159 0.0142899 23.8215 0.00109482 24.1502C-0.0118027 24.4639 0.0975494 24.7678 0.206612 25.0615C1.41097 28.3002 2.80824 31.4649 4.38786 34.5321C4.76078 34.4284 5.1334 34.324 5.50632 34.2199C4.84609 32.2519 4.28526 30.2494 3.82673 28.223C3.78745 28.0494 3.74933 27.8651 3.80328 27.6957C3.86953 27.4864 4.05951 27.3477 4.23805 27.2236C6.88835 25.3845 9.53835 23.5451 12.1884 21.7059C11.5108 25.8342 12.1499 30.176 13.9873 33.9217L43.0916 16.4075Z" fill="#ED2F2F"/>
<path d="M3.27516 27.167C3.28073 27.1527 3.28688 27.1413 3.29392 27.1354C8.25032 23.0181 10.3108 22.1408 12.6479 19.4696L13.6655 14.5168C13.6802 14.4461 13.7816 14.4559 13.7802 14.5281C13.7215 17.2574 14.5929 22.6644 15.6081 26.8506C16.1933 26.2637 16.6671 25.5205 17.8814 24.4013C22.0955 20.5176 26.8502 18.0217 32.4662 17.116C32.0373 16.8658 31.8426 16.743 31.4137 16.4928C34.4897 15.1657 36.0183 14.7353 39.2998 14.096C39.851 13.9886 42.693 14.1917 43.73 14.767L16.4903 30.0329C16.7506 30.8327 17.006 31.4873 17.2437 31.9293L13.9872 33.9211C12.1498 30.1757 11.5107 25.8342 12.1882 21.706C9.53824 23.5448 6.88824 25.3842 4.23794 27.2233C4.0594 27.3474 3.86942 27.4864 3.80316 27.6954C3.74922 27.8654 3.78733 28.0494 3.82662 28.223C4.28514 30.2494 4.84599 32.252 5.50621 34.2196C5.1333 34.324 4.76067 34.4284 4.38775 34.5322C3.85945 32.6963 2.11741 24.9217 2.25726 25.2178C2.53988 25.8172 3.27516 27.167 3.27516 27.167Z" fill="#DD281F"/>
<path d="M42.4678 14.0147C45.3435 14.3445 47.416 17.4031 48 20.2863C47.5277 19.6415 46.5634 19.436 45.8762 19.8342C46.9217 21.4228 46.3556 23.6803 45.0882 25.0921C43.8211 26.5036 42.0204 27.2679 40.2804 27.9902C38.4238 28.7611 36.5671 29.5317 34.7104 30.3026C35.0669 29.929 35.2724 29.4103 35.2695 28.8897C29.6995 31.483 26.1186 37.8411 20.1438 39.2159C20.3771 38.8881 20.6105 38.561 20.8441 38.2332C18.9816 38.0799 17.0783 39.175 16.2481 40.8775C15.7406 40.3759 14.7215 40.7201 14.6101 41.4313C12.387 40.4406 11.3004 37.6278 11.8044 35.2125C12.3084 32.7972 14.1196 30.8251 16.2401 29.6239C15.557 29.4572 14.8742 29.2908 14.1911 29.1244C16.9314 28.2762 18.8746 25.8845 20.9975 23.9282C24.7753 20.4461 29.564 18.1131 34.5993 17.3014C34.2147 17.0771 33.8303 16.8526 33.446 16.6283C36.2035 15.4381 37.5205 14.7653 40.4625 14.1918C40.9568 14.0955 41.9676 13.9574 42.4678 14.0147Z" fill="#EDEDED"/>
<path d="M16.2071 29.6043C15.0526 30.5273 13.6504 32.7443 13.6152 33.5113C13.5914 34.494 14.1335 36.4834 17.3617 36.2919C20.1198 36.1279 23.1211 34.4245 25.1692 32.5385C24.7456 32.3056 24.3219 32.0727 23.8983 31.8401C27.412 31.5287 28.9787 30.9705 31.4296 30.1074C31.816 29.9714 34.8554 28.7753 35.2447 28.9002L35.2696 28.8898C35.262 28.8931 35.2547 28.8972 35.2473 28.9008C35.2553 28.9032 35.2638 28.9038 35.272 28.9065L31.347 31.4446C27.7312 34.3857 24.6045 38.1892 20.1439 39.2157C20.3773 38.8882 20.6106 38.5608 20.844 38.2333C18.9815 38.0801 17.0785 39.1751 16.2482 40.8777C15.7407 40.3758 14.7216 40.7199 14.6102 41.4312C12.3868 40.4408 11.3006 37.6277 11.8045 35.2127C12.2757 32.9545 14.125 30.796 16.0658 29.5802" fill="#DDDDDD"/>
<path d="M4.94363 33.6551C4.2491 33.4806 2.48683 33.8701 1.93889 34.3377C1.39124 34.8053 1.01334 35.4444 0.686152 36.0912L1.5302 36.0319C0.628105 36.8284 0.240528 38.1135 0.319392 39.326C0.398256 40.5383 0.894014 41.687 1.51848 42.7228L1.63692 41.8439C2.32441 42.8784 3.38013 43.6866 4.58449 43.9285C5.78885 44.1706 7.12866 43.794 7.94251 42.8588C7.68041 42.7937 7.41861 42.7287 7.15651 42.6634C9.36734 41.6876 10.6945 38.9932 10.1399 36.6077C9.72589 37.4371 9.01259 38.1075 8.16708 38.4609C8.52446 38.0577 8.68072 37.4782 8.57547 36.9459C8.50452 37.1177 8.3078 37.226 8.1275 37.1917C8.40602 36.4136 8.13747 35.5061 7.59129 34.8921C7.0454 34.2783 6.26321 33.9261 5.46841 33.7478" fill="#EDEDED"/>
<path d="M1.53016 36.0318L0.685817 36.0911C1.01329 35.4443 1.3909 34.8055 1.93884 34.3376C2.28596 34.0412 3.12004 33.7769 3.86177 33.6669C3.83128 33.6857 3.80402 33.7093 3.77382 33.7283L3.93038 33.655C3.14086 34.1706 2.54132 35.2448 2.45776 35.8213C2.37421 36.398 2.46773 37.0144 2.79257 37.494C2.3874 37.4272 1.86408 37.0577 1.79138 36.5322C1.70987 36.8761 1.66003 37.2324 1.66003 37.6022C1.66003 38.4214 1.87376 39.1888 2.24374 39.8541C2.79784 40.4598 3.74274 40.7899 4.51936 40.9897C4.29714 41.0506 3.67414 41.1367 3.28569 41.1272C4.06729 41.7893 5.072 42.1886 6.16876 42.1886C7.31214 42.1886 8.35291 41.752 9.14771 41.0383C8.62791 41.7386 7.95038 42.3129 7.15647 42.6633C7.41827 42.7286 7.68037 42.7937 7.94247 42.859C7.12832 43.7939 5.78881 44.1705 4.58415 43.9284C3.37979 43.6865 2.32407 42.8784 1.63687 41.8435C1.5973 42.137 1.55772 42.4298 1.51814 42.723C0.89397 41.687 0.398212 40.5382 0.319056 39.3259C0.240191 38.1134 0.628061 36.8283 1.53016 36.0318Z" fill="#DDDDDD"/>
<defs>
<clipPath id="clip0_202_2">
<rect width="240" height="38" fill="white" transform="translate(28.9451 16.3262)"/>
</clipPath>
</defs>
</svg>
